Normalized EMG Linear Envelopes
nRows=274
nColumns=4

endheader
time	 med_gas_r	  soleus_r	 tib_ant_r	
2.52823	  0.100088	  0.046919	  0.018830	
2.56149	  0.102509	  0.046420	  0.018972	
2.59476	  0.105144	  0.046934	  0.019501	
2.62802	  0.107067	  0.048061	  0.020228	
2.66129	  0.107556	  0.049392	  0.020990	
2.69456	  0.106975	  0.050545	  0.021588	
2.72782	  0.106108	  0.051340	  0.021842	
2.76109	  0.105656	  0.052046	  0.021797	
2.79435	  0.105537	  0.052958	  0.021689	
2.82762	  0.104780	  0.054166	  0.021711	
2.86089	  0.102522	  0.055522	  0.021904	
2.89415	  0.098916	  0.056948	  0.022264	
2.92742	  0.094887	  0.058558	  0.022839	
2.96069	  0.091184	  0.060375	  0.023594	
2.99395	  0.087995	  0.062145	  0.024260	
3.02722	  0.085346	  0.063671	  0.024550	
3.06048	  0.083224	  0.064808	  0.024469	
3.09375	  0.081600	  0.065386	  0.024201	
3.12702	  0.080517	  0.065234	  0.023839	
3.16028	  0.080039	  0.064765	  0.023327	
3.19355	  0.080002	  0.064388	  0.022659	
3.22681	  0.080297	  0.064157	  0.022063	
3.26008	  0.080861	  0.064267	  0.021723	
3.29335	  0.081649	  0.064654	  0.021660	
3.32661	  0.082617	  0.065148	  0.021741	
3.35988	  0.083531	  0.065778	  0.021946	
3.39315	  0.084071	  0.066131	  0.022281	
3.42641	  0.083760	  0.065859	  0.022619	
3.45968	  0.082497	  0.065192	  0.022936	
3.49294	  0.080814	  0.064063	  0.023238	
3.52621	  0.079371	  0.062396	  0.023512	
3.55948	  0.078406	  0.060517	  0.023669	
3.59274	  0.077796	  0.058908	  0.023599	
3.62601	  0.077645	  0.057864	  0.023340	
3.65927	  0.078071	  0.057374	  0.022873	
3.69254	  0.078714	  0.057161	  0.022145	
3.72581	  0.079343	  0.056897	  0.021241	
3.75907	  0.079838	  0.056580	  0.020411	
3.79234	  0.079997	  0.056312	  0.019928	
3.8256	  0.079677	  0.056498	  0.019970	
3.85887	  0.078967	  0.057651	  0.020557	
3.89214	  0.078149	  0.059868	  0.021576	
3.9254	  0.077464	  0.062879	  0.022796	
3.95867	  0.077365	  0.066169	  0.023961	
3.99194	  0.078118	  0.068876	  0.024781	
4.0252	  0.079692	  0.070219	  0.025039	
4.05847	  0.081577	  0.070110	  0.024767	
4.09173	  0.083227	  0.069105	  0.024282	
4.125	  0.084362	  0.067639	  0.023857	
4.15827	  0.084878	  0.065883	  0.023603	
4.19153	  0.084605	  0.064092	  0.023560	
4.2248	  0.083482	  0.062235	  0.023579	
4.25806	  0.082145	  0.060275	  0.023419	
4.29133	  0.081322	  0.058661	  0.022965	
4.3246	  0.081253	  0.057970	  0.022296	
4.35786	  0.081845	  0.058364	  0.021573	
4.39113	  0.082856	  0.059709	  0.020877	
4.4244	  0.083952	  0.061543	  0.020194	
4.45766	  0.084848	  0.063257	  0.019492	
4.49093	  0.085625	  0.064486	  0.018708	
4.52419	  0.086152	  0.065022	  0.017665	
4.55746	  0.086342	  0.064528	  0.016177	
4.59073	  0.086329	  0.063009	  0.014346	
4.62399	  0.086250	  0.060929	  0.012503	
4.65726	  0.086070	  0.058474	  0.011153	
4.69052	  0.085667	  0.056101	  0.011011	
4.72379	  0.085496	  0.054584	  0.013222	
4.75706	  0.086535	  0.054723	  0.019304	
4.79032	  0.089897	  0.057363	  0.030854	
4.82359	  0.096645	  0.063206	  0.049269	
4.85685	  0.107386	  0.072671	  0.075590	
4.89012	  0.122332	  0.085965	  0.110184	
4.92339	  0.141825	  0.102910	  0.151967	
4.95665	  0.165182	  0.122852	  0.197504	
4.98992	  0.189972	  0.144116	  0.240653	
5.02319	  0.213722	  0.164841	  0.275377	
5.05645	  0.235586	  0.185538	  0.300866	
5.08972	  0.255289	  0.207306	  0.320508	
5.12298	  0.271811	  0.229844	  0.336285	
5.15625	  0.284408	  0.252407	  0.347516	
5.18952	  0.293647	  0.273912	  0.355149	
5.22278	  0.300721	  0.293273	  0.361278	
5.25605	  0.306448	  0.309685	  0.366738	
5.28931	  0.310673	  0.321219	  0.372645	
5.32258	  0.313401	  0.327617	  0.381709	
5.35585	  0.314647	  0.330528	  0.395400	
5.38911	  0.314059	  0.330478	  0.414005	
5.42238	  0.310838	  0.327791	  0.436338	
5.45565	  0.304998	  0.323925	  0.460045	
5.48891	  0.297430	  0.319957	  0.482441	
5.52218	  0.289893	  0.316860	  0.501104	
5.55544	  0.284138	  0.316432	  0.512941	
5.58871	  0.281603	  0.318997	  0.516178	
5.62198	  0.284192	  0.324087	  0.514052	
5.65524	  0.293022	  0.331261	  0.511882	
5.68851	  0.307607	  0.340356	  0.512289	
5.72177	  0.325863	  0.351113	  0.517864	
5.75504	  0.344969	  0.362066	  0.528355	
5.78831	  0.362823	  0.370874	  0.541714	
5.82157	  0.378313	  0.375998	  0.556334	
5.85484	  0.390020	  0.376908	  0.569005	
5.8881	  0.397714	  0.377073	  0.578621	
5.92137	  0.402645	  0.379737	  0.586553	
5.95464	  0.407119	  0.386046	  0.596824	
5.9879	  0.412864	  0.395920	  0.612884	
6.02117	  0.420850	  0.409129	  0.632688	
6.05444	  0.430745	  0.424864	  0.651367	
6.0877	  0.441797	  0.441073	  0.664428	
6.12097	  0.453288	  0.457073	  0.672124	
6.15423	  0.465499	  0.471383	  0.677886	
6.1875	  0.479335	  0.482786	  0.684823	
6.22077	  0.494164	  0.490881	  0.691424	
6.25403	  0.507969	  0.495745	  0.694086	
6.2873	  0.518765	  0.497279	  0.694038	
6.32056	  0.524662	  0.495477	  0.695373	
6.35383	  0.524958	  0.490370	  0.699907	
6.3871	  0.522632	  0.485157	  0.706981	
6.42036	  0.520845	  0.483741	  0.714308	
6.45363	  0.521741	  0.487487	  0.718033	
6.4869	  0.527086	  0.495421	  0.716867	
6.52016	  0.536454	  0.505093	  0.715601	
6.55343	  0.547650	  0.513629	  0.716803	
6.58669	  0.557497	  0.517723	  0.720231	
6.61996	  0.562419	  0.514924	  0.724743	
6.65323	  0.561628	  0.506009	  0.728723	
6.68649	  0.555281	  0.494448	  0.730123	
6.71976	  0.543994	  0.484204	  0.728907	
6.75302	  0.532035	  0.479580	  0.726360	
6.78629	  0.524391	  0.482767	  0.723699	
6.81956	  0.526333	  0.495734	  0.725529	
6.85282	  0.539691	  0.518476	  0.732711	
6.88609	  0.563603	  0.549927	  0.743436	
6.91935	  0.595801	  0.587731	  0.754992	
6.95262	  0.630279	  0.626751	  0.765969	
6.98589	  0.661384	  0.661743	  0.775117	
7.01915	  0.687200	  0.690365	  0.779148	
7.05242	  0.705929	  0.711379	  0.774319	
7.08569	  0.712311	  0.719577	  0.761313	
7.11895	  0.703492	  0.712285	  0.746828	
7.15222	  0.682488	  0.691683	  0.736895	
7.18548	  0.655284	  0.664556	  0.733808	
7.21875	  0.626842	  0.636299	  0.735688	
7.25202	  0.602218	  0.610900	  0.740267	
7.28528	  0.585193	  0.591031	  0.746487	
7.31855	  0.575898	  0.577698	  0.755345	
7.35181	  0.570524	  0.569373	  0.768233	
7.38508	  0.567122	  0.565833	  0.785595	
7.41835	  0.566533	  0.567041	  0.804843	
7.45161	  0.569302	  0.571448	  0.821528	
7.48488	  0.575764	  0.579451	  0.834287	
7.51815	  0.584830	  0.591301	  0.845174	
7.55141	  0.595053	  0.606200	  0.855275	
7.58468	  0.604865	  0.620484	  0.860837	
7.61794	  0.609733	  0.628375	  0.855385	
7.65121	  0.608294	  0.628856	  0.840731	
7.68448	  0.602460	  0.623540	  0.823628	
7.71774	  0.594340	  0.613589	  0.809349	
7.75101	  0.583882	  0.599784	  0.797235	
7.78427	  0.571725	  0.583650	  0.783091	
7.81754	  0.560723	  0.568169	  0.763376	
7.85081	  0.552107	  0.555232	  0.741265	
7.88407	  0.547466	  0.545956	  0.719986	
7.91734	  0.546489	  0.539678	  0.700267	
7.9506	  0.547125	  0.535103	  0.682057	
7.98387	  0.549466	  0.531449	  0.664992	
8.01714	  0.552917	  0.527730	  0.648110	
8.0504	  0.558578	  0.524856	  0.633150	
8.08367	  0.566517	  0.524261	  0.622151	
8.11694	  0.574369	  0.526207	  0.617823	
8.1502	  0.581507	  0.531125	  0.621855	
8.18347	  0.586778	  0.537207	  0.633790	
8.21673	  0.586895	  0.540698	  0.651351	
8.25	  0.579803	  0.539395	  0.672741	
8.28327	  0.566706	  0.533238	  0.697013	
8.31653	  0.550180	  0.524737	  0.721345	
8.3498	  0.532586	  0.515809	  0.743679	
8.38306	  0.516061	  0.506276	  0.762121	
8.41633	  0.502315	  0.496591	  0.779170	
8.4496	  0.493272	  0.490244	  0.794776	
8.48286	  0.489782	  0.489786	  0.806099	
8.51613	  0.491423	  0.494851	  0.812236	
8.5494	  0.496916	  0.503248	  0.812885	
8.58266	  0.504334	  0.513370	  0.808626	
8.61593	  0.511346	  0.522460	  0.799606	
8.64919	  0.516973	  0.528047	  0.785040	
8.68246	  0.518300	  0.527668	  0.765284	
8.71573	  0.513028	  0.519693	  0.741182	
8.74899	  0.501465	  0.504840	  0.712756	
8.78226	  0.484184	  0.484064	  0.681053	
8.81552	  0.463694	  0.460641	  0.653824	
8.84879	  0.442409	  0.436465	  0.636325	
8.88206	  0.422833	  0.412553	  0.629235	
8.91532	  0.405732	  0.389957	  0.630510	
8.94859	  0.391802	  0.370528	  0.639618	
8.98185	  0.382324	  0.354915	  0.655264	
9.01512	  0.377970	  0.344027	  0.673258	
9.04839	  0.377905	  0.338234	  0.690511	
9.08165	  0.381738	  0.338477	  0.703176	
9.11492	  0.390136	  0.346859	  0.708843	
9.14819	  0.402740	  0.362992	  0.704774	
9.18145	  0.418730	  0.384061	  0.690858	
9.21472	  0.437337	  0.406870	  0.672050	
9.24798	  0.457576	  0.429148	  0.653521	
9.28125	  0.477776	  0.449771	  0.637132	
9.31452	  0.493460	  0.465357	  0.621667	
9.34778	  0.501695	  0.474060	  0.605963	
9.38105	  0.502748	  0.475451	  0.590970	
9.41431	  0.500296	  0.471029	  0.577913	
9.44758	  0.496876	  0.464235	  0.569342	
9.48085	  0.493355	  0.459168	  0.568331	
9.51411	  0.489438	  0.458459	  0.574893	
9.54738	  0.485209	  0.462054	  0.587644	
9.58065	  0.481076	  0.468716	  0.604885	
9.61391	  0.478968	  0.476730	  0.624216	
9.64718	  0.477385	  0.480759	  0.640716	
9.68044	  0.472966	  0.476594	  0.650956	
9.71371	  0.463835	  0.465938	  0.653931	
9.74698	  0.450793	  0.451685	  0.650903	
9.78024	  0.433978	  0.433761	  0.642958	
9.81351	  0.413871	  0.411084	  0.629341	
9.84677	  0.392201	  0.384694	  0.608470	
9.88004	  0.369300	  0.355730	  0.579343	
9.91331	  0.344657	  0.323702	  0.540630	
9.94657	  0.317872	  0.289795	  0.491500	
9.97984	  0.289137	  0.255431	  0.434766	
10.0131	  0.259254	  0.221864	  0.372519	
10.0464	  0.228942	  0.189987	  0.307390	
10.0796	  0.200049	  0.161287	  0.245305	
10.1129	  0.174816	  0.137697	  0.192397	
10.1462	  0.155178	  0.120929	  0.153291	
10.1794	  0.141822	  0.111317	  0.129836	
10.2127	  0.134082	  0.108393	  0.120956	
10.246	  0.130967	  0.111218	  0.122898	
10.2792	  0.130526	  0.117891	  0.129346	
10.3125	  0.130386	  0.125878	  0.133931	
10.3458	  0.129271	  0.132932	  0.135143	
10.379	  0.127366	  0.137481	  0.133419	
10.4123	  0.125276	  0.138757	  0.128469	
10.4456	  0.123420	  0.136021	  0.119939	
10.4788	  0.121715	  0.129089	  0.109198	
10.5121	  0.120495	  0.119757	  0.097720	
10.5454	  0.120287	  0.109801	  0.086753	
10.5786	  0.120707	  0.100393	  0.076663	
10.6119	  0.121102	  0.092174	  0.067260	
10.6452	  0.121340	  0.085553	  0.059316	
10.6784	  0.121462	  0.080741	  0.053600	
10.7117	  0.121997	  0.077606	  0.050485	
10.745	  0.123596	  0.075869	  0.049867	
10.7782	  0.126137	  0.075243	  0.051076	
10.8115	  0.128944	  0.075290	  0.053083	
10.8448	  0.130861	  0.075395	  0.054738	
10.878	  0.130706	  0.075022	  0.054726	
10.9113	  0.128046	  0.074018	  0.052649	
10.9446	  0.123334	  0.072492	  0.049461	
10.9778	  0.117811	  0.070726	  0.045957	
11.0111	  0.112603	  0.069015	  0.042652	
11.0444	  0.108184	  0.067554	  0.039884	
11.0776	  0.104447	  0.066432	  0.037685	
11.1109	  0.101324	  0.065640	  0.035896	
11.1442	  0.098850	  0.065134	  0.034286	
11.1774	  0.097022	  0.064970	  0.032861	
11.2107	  0.096029	  0.065227	  0.031633	
11.244	  0.095572	  0.065601	  0.030618	
11.2772	  0.095066	  0.065784	  0.029821	
11.3105	  0.094148	  0.065727	  0.029118	
11.3437	  0.093108	  0.065524	  0.028425	
11.377	  0.092377	  0.065260	  0.027803	
11.4103	  0.092194	  0.064952	  0.027340	
11.4435	  0.092322	  0.064625	  0.027002	
11.4768	  0.092111	  0.064169	  0.026663	
11.5101	  0.091069	  0.063332	  0.026265	
11.5433	  0.089660	  0.062150	  0.025792	
11.5766	  0.088598	  0.060802	  0.025258	
11.6099	  0.088393	  0.059806	  0.024813	
